<svg xmlns="http://www.w3.org/2000/svg" aria-hidden="true" >
  <defs>
    <symbol id="icon-linkedin" viewBox="0 0 32 32">
      <path d="M31.992 32v-.001H32V20.263c0-5.741-1.236-10.164-7.948-10.164-3.227 0-5.392 1.771-6.276 3.449h-.093v-2.913h-6.364v21.364h6.627V21.42c0-2.785.528-5.479 3.977-5.479 3.399 0 3.449 3.179 3.449 5.657v10.401h6.62zM.528 10.636h6.635V32H.528V10.636zM3.843 0C1.722 0 0 1.721 0 3.843s1.721 3.879 3.843 3.879c2.121 0 3.843-1.757 3.843-3.879A3.846 3.846 0 0 0 3.843 0z"/>
    </symbol>
    <symbol id="icon-facebook" viewBox="0 0 18 32">
      <path d="M13.329 5.313h2.921V.225C15.746.156 14.013 0 11.994 0 7.782 0 4.897 2.649 4.897 7.519V12H.249v5.688h4.648V32h5.699V17.689h4.46l.708-5.688h-5.169V8.082c.001-1.644.444-2.769 2.735-2.769z"/>
    </symbol>
    <symbol id="icon-instagram" viewBox="0 0 32 32">
      <path d="M31.969 9.408c-.075-1.7-.35-2.869-.744-3.882a7.803 7.803 0 0 0-1.85-2.838A7.867 7.867 0 0 0 26.543.844C25.524.45 24.361.175 22.661.1 20.948.019 20.404 0 16.06 0s-4.888.019-6.595.094c-1.7.075-2.869.35-3.882.744a7.803 7.803 0 0 0-2.838 1.85A7.867 7.867 0 0 0 .901 5.52C.507 6.539.232 7.702.157 9.402c-.081 1.713-.1 2.257-.1 6.601s.019 4.888.094 6.595c.075 1.7.35 2.869.744 3.882a7.895 7.895 0 0 0 1.85 2.838 7.867 7.867 0 0 0 2.832 1.844c1.019.394 2.182.669 3.882.744 1.706.075 2.25.094 6.595.094s4.888-.019 6.595-.094c1.7-.075 2.869-.35 3.882-.744a8.181 8.181 0 0 0 4.682-4.682c.394-1.019.669-2.182.744-3.882.075-1.707.094-2.25.094-6.595s-.006-4.888-.081-6.595zm-2.882 13.065c-.069 1.563-.331 2.407-.55 2.969a5.31 5.31 0 0 1-3.038 3.038c-.563.219-1.413.481-2.969.55-1.688.075-2.194.094-6.464.094s-4.782-.019-6.464-.094c-1.563-.069-2.407-.331-2.969-.55a4.926 4.926 0 0 1-1.838-1.194 4.974 4.974 0 0 1-1.194-1.838c-.219-.563-.481-1.413-.55-2.969-.075-1.688-.094-2.194-.094-6.464s.019-4.782.094-6.464c.069-1.563.331-2.407.55-2.969a4.868 4.868 0 0 1 1.2-1.838A4.974 4.974 0 0 1 6.639 3.55c.563-.219 1.413-.481 2.969-.55 1.688-.075 2.194-.094 6.464-.094 4.276 0 4.782.019 6.464.094 1.563.069 2.407.331 2.969.55a4.914 4.914 0 0 1 1.838 1.194 4.974 4.974 0 0 1 1.194 1.838c.219.563.481 1.413.55 2.969.075 1.688.094 2.194.094 6.464s-.019 4.77-.094 6.458z"/>
      <path d="M16.059 7.783c-4.538 0-8.22 3.682-8.22 8.22s3.682 8.22 8.22 8.22 8.22-3.682 8.22-8.22-3.682-8.22-8.22-8.22zm0 13.552a5.333 5.333 0 0 1 0-10.664 5.333 5.333 0 0 1 0 10.664zM26.524 7.458a1.919 1.919 0 1 1-3.838 0 1.919 1.919 0 0 1 3.838 0z"/>
    </symbol>
    <symbol id="icon-github" viewBox="0 0 32 32">
      <path d="M16 1.28c-8.121 0-14.72 6.599-14.72 14.72s6.599 14.72 14.72 14.72c8.121 0 14.72-6.599 14.72-14.72s-6.599-14.72-14.72-14.72zM16 2.56c7.429 0 13.44 6.011 13.44 13.44 0 0.046-0.003 0.091-0.004 0.136-0.409-0.038-0.882-0.074-1.484-0.095-0.85-0.030-1.922-0.021-3.137 0.039 0.045-0.314 0.077-0.632 0.078-0.959 0.062-1.198-0.34-2.32-0.995-3.31 0.158-0.546 0.344-1.242 0.39-2.030 0.053-0.899-0.025-1.895-0.746-2.569l-0.185-0.173h-0.253c-1.717 0-2.893 0.719-3.611 1.289-1.038-0.402-2.205-0.649-3.492-0.649-1.295 0-2.473 0.25-3.554 0.651-0.718-0.57-1.895-1.291-3.614-1.291h-0.251l-0.185 0.171c-0.703 0.653-0.768 1.622-0.724 2.516 0.039 0.789 0.213 1.506 0.369 2.079-0.666 1.010-1.065 2.16-1.065 3.297 0 0.327 0.030 0.647 0.075 0.961-1.156-0.054-2.186-0.064-3.004-0.035-0.601 0.021-1.074 0.057-1.484 0.095-0-0.042-0.004-0.083-0.004-0.125 0-7.429 6.011-13.44 13.44-13.44zM9.214 8.404c1.291 0.122 2.263 0.699 2.713 1.099l0.3 0.265 0.37-0.151c1.012-0.417 2.141-0.656 3.404-0.656s2.392 0.241 3.328 0.65l0.375 0.165 0.306-0.273c0.45-0.4 1.423-0.977 2.715-1.099 0.172 0.285 0.321 0.69 0.285 1.303-0.043 0.733-0.239 1.532-0.387 2.006l-0.096 0.309 0.191 0.261c0.633 0.864 0.956 1.798 0.901 2.786l-0.001 0.018v0.018c0 1.597-0.575 2.875-1.8 3.823s-3.159 1.554-5.88 1.554c-2.721 0-4.656-0.607-5.881-1.554s-1.799-2.225-1.799-3.822c0-0.937 0.338-1.969 0.964-2.821l0.188-0.255-0.090-0.304c-0.148-0.504-0.33-1.321-0.366-2.059-0.030-0.614 0.115-1.001 0.262-1.261zM5.686 16.654c0.452 0.006 0.971 0.030 1.49 0.056 0.050 0.2 0.106 0.396 0.175 0.587-2.117 0.045-3.7 0.258-4.676 0.44-0.041-0.32-0.074-0.643-0.092-0.97 0.721-0.068 1.738-0.131 3.104-0.114zM26.314 16.664c1.365-0.017 2.381 0.045 3.102 0.114-0.018 0.322-0.051 0.641-0.091 0.956-1.011-0.185-2.637-0.398-4.809-0.433 0.067-0.188 0.123-0.381 0.172-0.576 0.573-0.031 1.132-0.055 1.625-0.061zM7.624 17.933c0.382 0.765 0.928 1.449 1.649 2.006 0.986 0.762 2.268 1.295 3.832 1.58-0.205 0.21-0.391 0.441-0.556 0.685l-0.039-0.034c0.004-0.004-0.318 0.157-0.799 0.2s-1.073 0.030-1.599 0.030c-0.784 0-1.129-0.37-1.681-1.045-0.306-0.412-0.678-0.745-1.040-0.999-0.37-0.259-0.686-0.442-1.077-0.508l-0.053-0.009h-0.054c-0.299 0-0.588 0.022-0.857 0.33-0.135 0.154-0.228 0.44-0.168 0.681s0.213 0.39 0.35 0.481c0.875 0.583 1.029 1.737 1.577 2.764 0.512 1.020 1.617 1.504 2.746 1.504h1.664v3.074c-4.501-1.589-7.895-5.503-8.748-10.304 0.98-0.185 2.62-0.406 4.851-0.438zM24.245 17.938c2.28 0.020 3.967 0.241 4.984 0.429-0.852 4.803-4.247 8.718-8.749 10.307v-3.33c0-1.014-0.333-2.132-0.913-3.065-0.176-0.283-0.383-0.551-0.614-0.791 1.482-0.293 2.699-0.816 3.646-1.549 0.72-0.556 1.264-1.238 1.645-2.001zM15.168 21.824h1.793c0.52 0 1.075 0.415 1.52 1.13s0.72 1.676 0.72 2.39v3.711c-1.026 0.25-2.097 0.385-3.2 0.385s-2.174-0.135-3.2-0.385v-3.711c0-0.698 0.299-1.657 0.774-2.375s1.074-1.145 1.594-1.145zM7.878 22.58c0.554 0.575 1.225 1.1 2.235 1.1 0.499 0 1.121 0.018 1.713-0.035 0.002-0 0.004-0.001 0.006-0.001-0.078 0.224-0.136 0.449-0.185 0.676h-1.79c-0.789 0-1.347-0.285-1.604-0.799l-0.005-0.009-0.004-0.008c-0.105-0.195-0.243-0.586-0.366-0.925z"></path>
    </symbol>
  </defs>
</svg>